<?xml version="1.0" encoding="UTF-8"?>
<svg id="Layer_2" data-name="Layer 2" xmlns="http://www.w3.org/2000/svg" viewBox="0 0 120.82 98.4">
  <defs>
    <style>
      .cls-1 {
        fill: #FFFDFA;
        stroke-width: 0px;
      }
    </style>
  </defs>
  <g id="Layer_1-2" data-name="Layer 1">
    <g>
      <path class="cls-1" d="M5.01,50.69c2.41-1.2,4.71-2.25,7.1-3.24,2.16-.8,4.1-1.44,5.9-1.97-1.38-1.06-2.3-2.67-2.43-4.47v-2.06h44.3l-11.61-15.51H0v19.4c0,3.39.87,6.58,2.41,9.35.66-.4,1.54-.92,2.6-1.5Z"/>
      <path class="cls-1" d="M35.73,48.15c-1.8.13-3.6.34-5.37.59-3.33.47-6.63,1.18-9.86,2.12-3.36.94-6.41,2.06-9.36,3.45-1.33.61-2.75,1.34-4.48,2.3l-.55.34c3.48,3.28,8.2,5.3,13.37,5.3h10.55s2.68,0,2.68,0c4.56,0,9.12,0,13.68,0,.16,0,.33,0,.48-.06.16-.07.28-.19.4-.32,1.18-1.25,2.2-2.66,3.04-4.17.09-.17.18-.34.27-.5.49-.96.89-1.98,1.1-3.04.14-.73.19-1.5-.03-2.21-.29-.93-1.02-1.68-1.87-2.17-.85-.49-1.81-.75-2.76-.96-2.12-.47-4.31-.76-6.48-.8-1.59-.03-3.2.02-4.8.13Z"/>
      <path class="cls-1" d="M55.37,46.82c1.72,1.67,2.75,3.98,2.75,6.38s-.73,4.89-2.16,7.4h-.01s-1.49,1.1-1.76,1.64h23.18l-11.61-15.42h-10.39Z"/>
      <polygon class="cls-1" points="51.94 15.58 59.5 25.74 75.31 46.82 78.52 51.02 79.81 52.77 100.05 25.74 100.05 53 115.56 62.24 115.56 0 100.05 0 79.81 27.03 60.56 1.41 59.5 0 0 0 9.29 15.58 51.94 15.58"/>
      <path class="cls-1" d="M31.94,76.92c-.73.45-1.48.87-2.23,1.3.79-.45,1.54-.89,2.23-1.3Z"/>
      <path class="cls-1" d="M53.6,60.34c.46-.73.85-1.45,1.17-2.17.33-.67.62-1.36.82-2.08.14-.51.22-1.04.28-1.58,0-.11.02-.22.03-.32.02-.17.03-.34.04-.51,0-.08.01-.15.01-.23v-.02c0-.08.01-.15.01-.23,0-.27-.02-.54-.06-.81-.01-.09-.03-.18-.04-.27-.03-.17-.07-.35-.11-.52-.03-.11-.07-.22-.1-.33-.04-.14-.09-.27-.14-.4-.06-.14-.12-.29-.19-.43,0-.02,0-.04-.02-.06-.01-.04-.03-.09-.06-.13-.01-.02-.02-.05-.04-.07-.13-.31-.3-.6-.5-.88-.25-.35-.55-.66-.86-.94-.03-.03-.07-.06-.1-.09-.01,0-.03-.03-.04-.04-.02-.02-.04-.04-.06-.06-.02-.02-.04-.05-.07-.07-.03-.04-.05-.06-.08-.07-.07-.06-.14-.12-.22-.18-.35-.29-.73-.53-1.13-.75-.01-.01-.03-.02-.04-.03h-.01c-.14-.08-.28-.16-.42-.24-.01,0-.01,0-.02,0-.18-.1-.37-.18-.56-.27-1.4-.66-3.09-1.15-5-1.48-.07-.01-.14-.02-.21-.04-.2-.03-.42-.07-.63-.1h0s-.08-.01-.13-.02c-.5-.07-1.01-.14-1.55-.19-.21-.02-.41-.04-.62-.05-1.05-.09-2.11-.12-3.18-.12h-.1c-.14-.01-.28-.01-.4-.01-.25,0-.5,0-.76.01-.86.01-1.72.04-2.58.09-.02,0-.05,0-.07.01-.98.05-2,.12-3.07.2-2.73.25-5.47.66-8.17,1.24-.17.03-.35.07-.52.11-.41.09-.82.18-1.23.28-.23.05-.46.1-.7.15-.23.05-.46.11-.7.17-.34.08-.69.17-1.04.26-.18.04-.36.09-.54.14h0s-.07.02-.1.03c-.04.01-.07.02-.11.03-.47.13-.95.27-1.43.41-.13.04-.27.08-.41.12-.05.01-.1.03-.14.05-.59.18-1.19.37-1.79.57-.21.07-.41.13-.62.2-.77.27-1.54.54-2.33.83-1.03.42-1.97.83-2.85,1.23-.03.01-.05.02-.08.03-.19.08-.37.17-.56.25-.11.05-.22.1-.33.15-.28.13-.56.26-.84.4-.01,0-.02.01-.02.01-.15.07-.3.14-.44.21-.63.3-1.23.6-1.78.87-1.01.55-1.84,1.03-2.48,1.42-.28.18-.53.33-.73.46-.21.12-.38.23-.55.34-.04.02-.08.05-.12.07-.03.02-.06.04-.09.06-.03.02-.06.04-.09.06-.07.05-.13.09-.2.14-.15.09-.31.18-.46.28-.15.09-.35.27-.53.49-.27.26-.49.55-.68.86-.06.18.06.36.3.6.24.18.49.24.73.24h.18c.3,0,.54-.06.67-.24l.11-.28s.06-.04.09-.06c2.1-1.49,4.3-2.82,6.6-3.98.09-.04.18-.09.27-.13.57-.29,1.16-.56,1.75-.83.44-.21.88-.41,1.33-.59.25-.11.51-.22.76-.33,1.47-.6,2.95-1.14,4.43-1.62.02,0,.03-.01.04-.01.03-.01.05-.02.07-.03h.06c.8-.27,1.6-.51,2.4-.73.72-.21,1.45-.41,2.17-.59h.01s.07-.02.11-.03c.09-.02.18-.05.27-.07.2-.05.39-.1.59-.14.16-.04.33-.08.5-.12h.01c3.48-.79,7.02-1.33,10.57-1.65,2-.18,4.03-.3,6.04-.29.18,0,.36,0,.53.01.3,0,.6.01.89.03.22.01.44.02.66.03.4.03.79.06,1.16.1h.06c.36.04.71.08,1.05.12.18.01.37.03.55.06.02-.01.04,0,.05,0,.58.08,1.16.18,1.74.29l.15.03.12.04s.06,0,.08.01c.05-.01.08,0,.11.02.02,0,.04,0,.05.03.03,0,.06,0,.1.01.04,0,.09.01.13.03.1.02.19.04.29.07,0,0,.01,0,.02.01l.13.04,1.08.33c.17.05.34.12.51.19l.22.11h.05c1.59.7,2.97,1.74,3.63,3.3.01.01.01.02.01.03.06.18.12.3.12.36l.04.04c.03.09.06.18.08.26.12.54.18,1.07.18,1.61v.03c0,.15.01.3,0,.45,0,.05-.01.09-.01.14t-.03,0h-.01s-.01.04-.01.07c0,.09-.01.21-.04.35-.01.1-.03.21-.04.32-.03.13-.05.26-.07.39-.03.13-.06.26-.09.39h0s-.01.05-.02.07c-.1.39-.23.77-.37,1.14-.01.02-.02.05-.02.07-.03.08-.06.15-.09.23-.03.07-.06.14-.09.21-.05.12-.1.23-.15.35-.01.03-.03.07-.05.1,0,.01-.01.02-.01.03-.11.23-.22.47-.35.71-.09.2-.21.4-.31.61-.68,1.22-1.48,2.37-2.36,3.47-.18.22-.36.44-.54.65-.04.05-.08.09-.12.13-.16.19-.32.37-.5.55-.32.38-.66.75-1.03,1.12.17-.19.34-.38.51-.57-.18.19-.36.38-.55.57-.67.67-1.63,1.7-3.03,2.97-.76.68-1.23,1.09-1.44,1.28-.07.06-.12.1-.13.11-.03.04-.06.07-.09.08-2.55,2.19-5.24,4.17-8.04,6.01-.07.04-.13.08-.2.13-.01,0-.01.01-.02.01-.31.2-.61.39-.92.59-.59.38-1.19.75-1.8,1.11-.17.11-.34.21-.52.31-.18.11-.36.22-.55.33-.09.06-.18.11-.28.16-.29.17-.58.34-.88.5-.55.33-1.11.65-1.68.95.18-.11.35-.2.52-.3-.41.23-.81.46-1.22.68-.03.02-.05.03-.08.04,0,.01,0,.01,0,.01-.18.1-.36.2-.54.29-.06.04-.11.07-.17.1-.15.07-.29.16-.44.23-.61.33-1.21.66-1.83.98-.41.21-.81.42-1.22.63-2.9,1.46-5.84,2.83-8.79,4.14l.26-.58c2.3-3.89,4.74-7.71,7.27-11.46.16-.25.33-.49.51-.74.3-.43.57-.82.81-1.17l2.12-3.09,1.51-2.12,1.86-2.57h-2.48c-.21.28-.41.56-.61.85-.94,1.24-1.77,2.42-2.48,3.48-.68.96-1.36,1.93-2.03,2.9-.86,1.23-1.7,2.46-2.53,3.7l-.02.02c-1.18,1.71-2.24,3.33-3.2,4.86-.05.08-.11.16-.16.25-.09.14-.18.28-.27.42-.91,1.43-1.81,2.87-2.52,4.39-.03.06-.06.13-.09.19-.38.72-.6,1.33-.71,1.72v.1c-.02.07-.03.13-.04.2-.15.16-.13.34.04.61h0c.16.33.51.46.9.47h.04s.05.01.07.01c.14,0,.21,0,.26-.03.33-.05.67-.15.95-.28.86-.39,1.73-.78,2.59-1.17.02-.01.05-.03.08-.04,1.34-.57,2.71-1.17,4.11-1.8,1.27-.55,3.09-1.52,5.51-2.79.22-.12.44-.24.65-.35,2.69-1.39,5.34-2.86,7.92-4.46,1.06-.65,2.08-1.34,3.1-2.05.03-.01.07-.04.1-.06.02-.01.04-.02.05-.03.05-.04.11-.08.16-.11.07-.05.14-.1.21-.15.12-.08.23-.16.34-.24-.03.03-.07.05-.1.08.15-.11.3-.21.45-.32.28-.19.55-.39.83-.59.13-.09.26-.18.38-.27.33-.24.66-.48.99-.73,1.09-.82,2.15-1.68,3.19-2.57,1.26-1.07,2.58-2.28,3.93-3.64,1.67-1.67,3.04-3.2,4.08-4.57.52-.67.95-1.31,1.31-1.9ZM7.8,53.54c.08-.05.17-.1.25-.14.06-.03.12-.06.18-.08-.14.08-.28.15-.43.22Z"/>
      <path class="cls-1" d="M53.89,48.41s-.07-.06-.1-.09c.02.01.03.03.05.04.02.02.04.03.06.05Z"/>
      <path class="cls-1" d="M117.07,79.22c-1.15-.37-2.9-.67-5.26-.91-1.96-.26-4.05-.39-6.27-.42-.39,0-.78,0-1.18,0-.96,0-2.48.06-4.47.13-.63.03-1.27.07-1.9.11-1.06.06-2.11.14-3.17.23-1.87.15-3.73.34-5.58.56-.22.03-.44.06-.67.1-2.93.42-6.27.98-9.92,1.66-3.45.66-7.2,1.51-11.2,2.48l.85-1.63,2.54-5.21c.18-.36.43-.91.85-1.63l.55-.97c0-.06.06-.18.12-.24v-.06l.06-.06.24-.49,1.45-2.42.85-1.39.54-.97,1.09-1.03c.24-.24.06-.6-.24-.84-.18-.18-.49-.25-.85-.25h-.3c-.55.13-.97.55-1.33,1.21l-1.94,1.94-1.93,2.24c-.79.91-1.64,1.82-2.42,2.6l-.61.61-.3.24c-.06.06-.12.12-.18.12l-.12.12c-.31.3-.73.55-1.15.79-.19.18-.43.3-.67.3-.12,0-.18-.06-.18-.18l-.06-.18v-.43c0-.06,0-.12.06-.18,0-.18,0-.24.06-.3.06-.3.18-.73.42-1.27l.3-.67.19-.3v-.06h.06l.12-.24c.3-.55.91-1.39,1.69-2.54.18-.31.55-.79,1.09-1.4l.43-.48.42-.36.36-.37.79-.54v.06c0,.36,0,.67.06.85,0,.18.18.36.54.54.25.06.61.06.79-.12.24-.42.36-.85.36-1.21,0-.3,0-.48-.06-.66-.18-.55-.97-.97-1.63-.97-.73,0-1.57.42-2.6,1.27-.38.33-.76.72-1.15,1.15h-.18c-.79.42-1.64.9-2.54,1.57-.19.12-.55.3-.97.55-.43.3-.79.54-1.09.78l-3.51,2.18c-.18.18-.42.3-.61.36-.84.55-1.57.91-2.24,1.21l-1.21.61c-.3.12-.78.3-1.33.54-.6.25-1.15.43-1.57.55l-.73.18c-.24.06-.36.06-.42-.12,0-.12.06-.36.12-.67.12-.54.43-1.27.91-2.11.3-.67.67-1.28,1.09-1.88.66-1.03,1.63-2.18,2.78-3.33l.67-.6.24-.19.36-.36c.04-.25.01-.45-.08-.61-.06-.12-.16-.22-.28-.3h.06c-.12-.06-.3-.12-.54-.12-.07,0-.15,0-.21.01-.1,0-.18.01-.22.05l-1.09.79-.9.85c-.43.36-.91.9-1.46,1.63-.78,1.03-1.63,2.36-2.42,3.87-.36.55-.66,1.27-.84,2.06-.06.12-.06.3-.06.61,0,.36.06.6.12.78.36.67,1.02,1.03,2.05,1.03,1.21,0,2.42-.42,4.18-1.15.54-.18,1.39-.6,2.6-1.21,2.06-1.09,4.3-2.42,6.66-3.99.03-.04.09-.08.15-.13-.46.76-.85,1.46-1.12,2.06-.43.97-.61,1.7-.61,2.24,0,1.39,1.21,2.18,2.6,2.18.67,0,1.33-.24,2-.67.73-.48,1.57-1.2,2.48-2.11l.3-.3-.12.24c-.18.3-.3.54-.42.84-.18.31-.3.55-.42.73l-.55,1.09-1.45,2.78c-.61,1.15-.97,1.88-1.15,2.24v.06l-.79,1.45-1.99.55c-3.03.91-5.45,2.06-7.2,3.45-1.15.91-2.06,1.81-2.73,2.84-1.15,1.64-1.75,3.09-1.75,4.36,0,1.15.42,2.06,1.27,2.66.66.48,1.45.73,2.36.73.66,0,1.27-.12,1.87-.37,1.7-.66,2.91-1.87,4.3-3.81.79-1.03,2-2.96,3.63-5.75l.67-1.21c.42-.66.72-1.33,1.02-1.93l.07-.12.06-.12c.06,0,.12,0,.18-.06,8.17-2,15.31-3.45,21.42-4.36,2.36-.3,4.11-.55,5.32-.67,1.15-.12,2.85-.24,5.09-.42,2.66-.18,4.59-.24,5.86-.24s3.21.06,5.81.24c2.12.12,4.24.42,6.48.91l.6.18.31.12q.06,0,.06.06c.06,0,.12,0,.18.06.12.06.3.12.54.3h.06l.06.06c-.06,0,0,0,.06.06s.06.06.06.12h.07v.07c.06.06.06.12.06.18.06.18.06.3.06.48-.06.12-.06.24-.06.36,0,.49.66.85,1.33.85.42,0,.66-.12.78-.42.06-.18.06-.37.06-.61,0-1.39-1.27-2.48-3.75-3.14ZM62.13,88.78c-1.27,2.11-2.42,3.93-3.57,5.38-.67.79-1.15,1.39-1.57,1.7v.06h-.06l-.19.12c-.3.18-.66.42-1.08.66-.07.06-.25.12-.43.18s-.3.13-.42.13c-.06,0-.12,0-.18.06h-.55l-.06-.06h-.12l-.24-.19-.12-.12-.06-.12h-.06l-.12-.36-.07-.12v-.12c-.06-.06-.06-.24-.06-.43-.06-.96.37-2.11,1.21-3.51,1.28-1.99,3.15-3.63,5.69-4.9,1.15-.6,2.36-1.09,3.63-1.39.06-.06.12-.06.18-.06l-1.75,3.09Z"/>
      <path class="cls-1" d="M100.73,76.86c1.21.18,2.36-.24,3.99-.97.97-.42,2.12-1.15,3.51-2.06,2.72-1.88,5.02-3.69,6.78-5.45l.48-.48c.3-.3,0-.73-.42-.91-.18-.12-.36-.18-.67-.18s-.48.06-.67.24c-2,1.94-4.24,3.75-6.72,5.51-1.03.73-2.18,1.39-3.45,2.06-.73.36-1.33.6-1.82.73l-.42.12c-.79.24-1.21-.12-1.21-.91v-.3l.18-.91c.06-.12.24-.6.54-1.51.42-.97.97-1.81,1.57-2.6.3-.48.6-.85.79-1.03l.36-.36c-.12.18-.06.12.18-.12l.12-.24v-.06c.3-.54-.36-1.09-1.09-1.09-.18,0-.3.06-.48.12-.42.3-.91.67-1.39,1.15-.18.18-.85.79-1.88,1.82-.79.79-1.21,1.21-1.21,1.21-1.27,1.27-2.42,2.36-3.45,3.15l-.3.24s-.06.06-.12.12c-.12.06-.12.12-.06.06l-.54.48-1.09.73-1.03.6-.12.06-.12.06c-.18.06-.3,0-.3-.06-.06-.06-.06-.12-.06-.24l.06-.42c.06-.42.18-.79.42-1.21l.54-.97.54-1.03,1.45-2.12c.79-1.15,1.27-1.75,1.33-1.88l.54-.72s0,0,0,0c.1-.09.15-.19.17-.29v-.02s.13-.12.13-.12q.06,0,.06-.06c.24-.18.3-.36.18-.54-.06-.24-.36-.42-.85-.48-.54-.12-.91,0-1.09.3-.06.06-.12.12-.12.18l-.36.42s-.02.03-.04.04c-.29.17-.6.33-.93.5l-1.81.85c-1.21.54-2.6,1.03-4.24,1.33h-.12v-.06c.24-.67.36-1.15.36-1.57s-.12-.79-.36-1.15c-.3-.48-.73-.73-1.39-.73-.3,0-.6.06-.85.18-.54.3-.91.79-1.09,1.39-.12.24-.18.66-.18,1.21,0,.67.18,1.21.48,1.51l.18.18-.48.61c-.18.24-.85,1.03-2,2.42-.79.79-1.63,1.45-2.42,1.94l-.3.18c-.06.06-.12.06-.18.06l-.3.06c-.3,0-.48-.12-.48-.3v-.48c0-.06.06-.36.18-.85.3-1.15.97-2.42,2-3.75.91-1.15,1.81-2.12,2.78-2.9.36,0,.54-.18.54-.54,0-.18-.06-.36-.24-.48-.18-.18-.42-.24-.79-.24-.18,0-.36,0-.42.06-1.27.79-2.54,1.88-3.69,3.39-1.15,1.51-1.81,2.96-2.12,4.3-.06.42-.12.73-.12.97s0,.42.06.54c.12.54.42,1.03.97,1.33.42.24.85.36,1.39.36s1.15-.12,1.88-.42c.85-.3,1.75-1.03,2.78-2.12.67-.66,1.27-1.45,1.88-2.24.24-.3.54-.73.97-1.27.42-.06.85-.12,1.21-.18.3-.06.6-.06.85-.12,1.26-.24,2.65-.66,4.15-1.32-.24.35-.49.72-.76,1.14-.67.91-1.21,1.94-1.69,2.97-.36.79-.54,1.45-.54,1.94,0,1.15,1.09,1.94,2.3,1.94.54,0,1.15-.18,1.82-.54.42-.18,1.15-.67,2.12-1.39.54-.42,1.39-1.15,2.42-2.12l1.15-1.03c-.24.79-.36,1.39-.36,1.82,0,1.45,1.09,2.54,2.54,2.6Z"/>
    </g>
  </g>
</svg>